<svg xmlns="http://www.w3.org/2000/svg" xmlns:xlink="http://www.w3.org/1999/xlink" width="700" zoomAndPan="magnify" viewBox="0 50 525 200" height="250" preserveAspectRatio="xMidYMid meet" version="1.0"><defs><g/></defs><g fill="#1e378b" fill-opacity="1"><g transform="translate(0.0184915, 202.929671)"><g><path d="M 47.265625 1.96875 C 39.003906 1.96875 31.929688 0.554688 26.046875 -2.265625 C 20.160156 -5.085938 15.476562 -8.863281 12 -13.59375 C 8.53125 -18.320312 6.289062 -23.503906 5.28125 -29.140625 L 26.875 -35.484375 C 27.476562 -31.148438 29.566406 -27.472656 33.140625 -24.453125 C 36.710938 -21.441406 41.421875 -19.9375 47.265625 -19.9375 C 53.097656 -19.9375 57.570312 -20.96875 60.6875 -23.03125 C 63.8125 -25.09375 65.375 -27.734375 65.375 -30.953125 C 65.375 -33.867188 64.390625 -36.109375 62.421875 -37.671875 C 60.460938 -39.234375 57.972656 -40.363281 54.953125 -41.0625 L 38.5 -45.140625 C 33.570312 -46.347656 28.890625 -48.1875 24.453125 -50.65625 C 20.023438 -53.125 16.425781 -56.46875 13.65625 -60.6875 C 10.894531 -64.914062 9.515625 -70.253906 9.515625 -76.703125 C 9.515625 -82.035156 11 -87.066406 13.96875 -91.796875 C 16.9375 -96.523438 21.265625 -100.347656 26.953125 -103.265625 C 32.640625 -106.191406 39.5625 -107.65625 47.71875 -107.65625 C 57.875 -107.65625 66.5 -105.210938 73.59375 -100.328125 C 80.695312 -95.441406 85.054688 -88.625 86.671875 -79.875 L 64.765625 -73.984375 C 64.367188 -76.898438 62.835938 -79.71875 60.171875 -82.4375 C 57.503906 -85.15625 53.351562 -86.515625 47.71875 -86.515625 C 42.78125 -86.515625 39.078125 -85.503906 36.609375 -83.484375 C 34.148438 -81.472656 32.921875 -79.210938 32.921875 -76.703125 C 32.921875 -74.085938 33.898438 -72.046875 35.859375 -70.578125 C 37.816406 -69.117188 40.5625 -67.9375 44.09375 -67.03125 L 60.390625 -62.8125 C 70.160156 -60.289062 77.332031 -56.390625 81.90625 -51.109375 C 86.488281 -45.828125 88.78125 -39.109375 88.78125 -30.953125 C 88.78125 -25.210938 87.191406 -19.828125 84.015625 -14.796875 C 80.847656 -9.765625 76.191406 -5.710938 70.046875 -2.640625 C 63.910156 0.429688 56.316406 1.96875 47.265625 1.96875 Z M 47.265625 1.96875 "/></g></g></g><g fill="#1e378b" fill-opacity="1"><g transform="translate(94.834459, 202.929671)"><g><path d="M 46.046875 1.96875 C 37.796875 1.96875 30.421875 0.179688 23.921875 -3.390625 C 17.429688 -6.960938 12.320312 -11.867188 8.59375 -18.109375 C 4.875 -24.359375 3.015625 -31.457031 3.015625 -39.40625 C 3.015625 -47.351562 4.875 -54.421875 8.59375 -60.609375 C 12.320312 -66.804688 17.429688 -71.71875 23.921875 -75.34375 C 30.421875 -78.96875 37.796875 -80.78125 46.046875 -80.78125 C 51.890625 -80.78125 57.398438 -79.75 62.578125 -77.6875 C 67.765625 -75.625 72.34375 -72.726562 76.3125 -69 C 80.289062 -65.269531 83.410156 -60.890625 85.671875 -55.859375 C 87.941406 -50.828125 89.078125 -45.34375 89.078125 -39.40625 C 89.078125 -33.46875 87.941406 -27.984375 85.671875 -22.953125 C 83.410156 -17.921875 80.289062 -13.539062 76.3125 -9.8125 C 72.34375 -6.09375 67.765625 -3.195312 62.578125 -1.125 C 57.398438 0.9375 51.890625 1.96875 46.046875 1.96875 Z M 25.671875 -39.40625 C 25.671875 -32.96875 27.679688 -27.859375 31.703125 -24.078125 C 35.734375 -20.304688 40.515625 -18.421875 46.046875 -18.421875 C 51.679688 -18.421875 56.488281 -20.304688 60.46875 -24.078125 C 64.445312 -27.859375 66.4375 -32.96875 66.4375 -39.40625 C 66.4375 -43.632812 65.503906 -47.304688 63.640625 -50.421875 C 61.773438 -53.546875 59.304688 -55.988281 56.234375 -57.75 C 53.171875 -59.507812 49.773438 -60.390625 46.046875 -60.390625 C 42.328125 -60.390625 38.929688 -59.507812 35.859375 -57.75 C 32.785156 -55.988281 30.316406 -53.546875 28.453125 -50.421875 C 26.597656 -47.304688 25.671875 -43.632812 25.671875 -39.40625 Z M 25.671875 -39.40625 "/></g></g></g><g fill="#1e378b" fill-opacity="1"><g transform="translate(186.932776, 202.929671)"><g><path d="M 8.296875 0 L 8.296875 -113.234375 L 30.65625 -113.234375 L 30.65625 0 Z M 8.296875 0 "/></g></g></g><g fill="#1e378b" fill-opacity="1"><g transform="translate(225.885832, 202.929671)"><g><path d="M 9.0625 0 L 9.0625 -78.8125 L 31.40625 -78.8125 L 31.40625 -62.8125 L 34.421875 -62.8125 C 35.429688 -67.539062 37.722656 -71.71875 41.296875 -75.34375 C 44.867188 -78.96875 49.523438 -80.78125 55.265625 -80.78125 C 62.003906 -80.78125 67.1875 -79.039062 70.8125 -75.5625 C 74.4375 -72.09375 76.898438 -67.84375 78.203125 -62.8125 L 81.234375 -62.8125 C 82.335938 -67.539062 84.722656 -71.71875 88.390625 -75.34375 C 92.066406 -78.96875 96.675781 -80.78125 102.21875 -80.78125 C 107.957031 -80.78125 112.613281 -79.519531 116.1875 -77 C 119.757812 -74.488281 122.398438 -71.242188 124.109375 -67.265625 C 125.816406 -63.285156 126.671875 -58.984375 126.671875 -54.359375 L 126.671875 0 L 104.328125 0 L 104.328125 -45.453125 C 104.328125 -49.273438 103.242188 -52.492188 101.078125 -55.109375 C 98.921875 -57.722656 95.828125 -59.03125 91.796875 -59.03125 C 87.972656 -59.03125 84.925781 -57.722656 82.65625 -55.109375 C 80.394531 -52.492188 79.265625 -49.273438 79.265625 -45.453125 L 79.265625 0 L 56.921875 0 L 56.921875 -45.453125 C 56.921875 -49.273438 55.8125 -52.492188 53.59375 -55.109375 C 51.382812 -57.722656 48.265625 -59.03125 44.234375 -59.03125 C 40.410156 -59.03125 37.316406 -57.722656 34.953125 -55.109375 C 32.585938 -52.492188 31.40625 -49.273438 31.40625 -45.453125 L 31.40625 0 Z M 9.0625 0 "/></g></g></g><g fill="#1e378b" fill-opacity="1"><g transform="translate(360.86269, 202.929671)"><g><path d="M 44.390625 1.96875 C 36.742188 1.96875 29.796875 0.28125 23.546875 -3.09375 C 17.304688 -6.46875 12.320312 -11.273438 8.59375 -17.515625 C 4.875 -23.753906 3.015625 -31.050781 3.015625 -39.40625 C 3.015625 -47.15625 4.675781 -54.148438 8 -60.390625 C 11.320312 -66.628906 16.078125 -71.585938 22.265625 -75.265625 C 28.460938 -78.941406 35.738281 -80.78125 44.09375 -80.78125 C 51.9375 -80.78125 58.726562 -78.992188 64.46875 -75.421875 C 70.207031 -71.847656 74.609375 -67.21875 77.671875 -61.53125 C 80.742188 -55.84375 82.28125 -49.828125 82.28125 -43.484375 L 82.28125 -31.859375 L 25.21875 -31.859375 C 26.519531 -26.921875 28.90625 -23.269531 32.375 -20.90625 C 35.851562 -18.539062 39.859375 -17.359375 44.390625 -17.359375 C 48.015625 -17.359375 51.359375 -18.238281 54.421875 -20 C 57.492188 -21.757812 59.585938 -23.5 60.703125 -25.21875 L 77 -14.1875 C 73.582031 -9.351562 69.226562 -5.453125 63.9375 -2.484375 C 58.65625 0.484375 52.140625 1.96875 44.390625 1.96875 Z M 25.8125 -49.375 L 60.703125 -49.375 C 60.492188 -51.488281 59.660156 -53.550781 58.203125 -55.5625 C 56.742188 -57.570312 54.804688 -59.253906 52.390625 -60.609375 C 49.972656 -61.972656 47.207031 -62.65625 44.09375 -62.65625 C 39.757812 -62.65625 35.984375 -61.519531 32.765625 -59.25 C 29.546875 -56.988281 27.226562 -53.695312 25.8125 -49.375 Z M 25.8125 -49.375 "/></g></g></g><g fill="#1e378b" fill-opacity="1"><g transform="translate(446.166881, 202.929671)"><g><path d="M 38.953125 1.96875 C 30.097656 1.96875 22.570312 -0.09375 16.375 -4.21875 C 10.1875 -8.351562 6.238281 -14.34375 4.53125 -22.1875 L 24.453125 -27.171875 C 25.160156 -23.546875 26.898438 -20.953125 29.671875 -19.390625 C 32.441406 -17.835938 35.535156 -17.0625 38.953125 -17.0625 C 43.484375 -17.0625 46.675781 -17.738281 48.53125 -19.09375 C 50.394531 -20.457031 51.328125 -21.941406 51.328125 -23.546875 C 51.328125 -25.054688 50.820312 -26.390625 49.8125 -27.546875 C 48.8125 -28.710938 47.003906 -29.492188 44.390625 -29.890625 L 29.4375 -32.609375 C 26.019531 -33.210938 22.648438 -34.445312 19.328125 -36.3125 C 16.003906 -38.175781 13.257812 -40.742188 11.09375 -44.015625 C 8.925781 -47.285156 7.84375 -51.285156 7.84375 -56.015625 C 7.84375 -60.546875 9.148438 -64.671875 11.765625 -68.390625 C 14.390625 -72.117188 18.117188 -75.113281 22.953125 -77.375 C 27.785156 -79.644531 33.519531 -80.78125 40.15625 -80.78125 C 49.113281 -80.78125 56.535156 -78.664062 62.421875 -74.4375 C 68.316406 -70.207031 72.019531 -64.671875 73.53125 -57.828125 L 54.203125 -52.6875 C 53.703125 -55.40625 52.191406 -57.742188 49.671875 -59.703125 C 47.160156 -61.671875 43.988281 -62.65625 40.15625 -62.65625 C 36.53125 -62.65625 33.890625 -61.972656 32.234375 -60.609375 C 30.578125 -59.253906 29.75 -57.722656 29.75 -56.015625 C 29.75 -53.097656 32.0625 -51.234375 36.6875 -50.421875 L 50.125 -48.015625 C 58.28125 -46.609375 64.21875 -43.765625 67.9375 -39.484375 C 71.664062 -35.203125 73.53125 -29.890625 73.53125 -23.546875 C 73.53125 -15.796875 70.457031 -9.601562 64.3125 -4.96875 C 58.175781 -0.34375 49.722656 1.96875 38.953125 1.96875 Z M 38.953125 1.96875 "/></g></g></g></svg>